<?xml version="1.0" encoding="UTF-8" standalone="no"?>
<!-- Created with Inkscape (http://www.inkscape.org/) -->

<svg
   xmlns:dc="http://purl.org/dc/elements/1.1/"
   xmlns:cc="http://creativecommons.org/ns#"
   xmlns:rdf="http://www.w3.org/1999/02/22-rdf-syntax-ns#"
   xmlns:svg="http://www.w3.org/2000/svg"
   xmlns="http://www.w3.org/2000/svg"
   xmlns:xlink="http://www.w3.org/1999/xlink"
   xmlns:sodipodi="http://sodipodi.sourceforge.net/DTD/sodipodi-0.dtd"
   xmlns:inkscape="http://www.inkscape.org/namespaces/inkscape"
   width="20"
   height="20"
   viewBox="0 0 5.2916666 5.2916668"
   version="1.1"
   id="svg822"
   inkscape:version="0.92.4 (5da689c313, 2019-01-14)"
   sodipodi:docname="flag-ca.svg"
   inkscape:export-filename="D:\Workspace\LaTeX\CV\images\flag-ca48.png"
   inkscape:export-xdpi="230.39999"
   inkscape:export-ydpi="230.39999">
  <title
     id="title826">Flag template</title>
  <defs
     id="defs816" />
  <sodipodi:namedview
     id="base"
     pagecolor="#ffffff"
     bordercolor="#666666"
     borderopacity="1.0"
     inkscape:pageopacity="0.0"
     inkscape:pageshadow="2"
     inkscape:zoom="31.68"
     inkscape:cx="5.4236214"
     inkscape:cy="7.7679634"
     inkscape:document-units="mm"
     inkscape:current-layer="layer2"
     showgrid="true"
     inkscape:snap-bbox="true"
     inkscape:bbox-paths="true"
     inkscape:snap-bbox-edge-midpoints="true"
     inkscape:bbox-nodes="true"
     inkscape:object-paths="true"
     inkscape:snap-bbox-midpoints="true"
     inkscape:snap-intersection-paths="true"
     inkscape:snap-smooth-nodes="true"
     inkscape:snap-midpoints="true"
     inkscape:snap-object-midpoints="true"
     inkscape:snap-center="true"
     inkscape:snap-text-baseline="true"
     units="px"
     inkscape:window-width="1920"
     inkscape:window-height="1001"
     inkscape:window-x="-9"
     inkscape:window-y="-9"
     inkscape:window-maximized="1">
    <inkscape:grid
       type="xygrid"
       id="grid824" />
  </sodipodi:namedview>
  <metadata
     id="metadata819">
    <rdf:RDF>
      <cc:Work
         rdf:about="">
        <dc:format>image/svg+xml</dc:format>
        <dc:type
           rdf:resource="http://purl.org/dc/dcmitype/StillImage" />
        <dc:title>Flag template</dc:title>
      </cc:Work>
    </rdf:RDF>
  </metadata>
  <g
     inkscape:groupmode="layer"
     id="layer2"
     inkscape:label="Content">
    <rect
       style="opacity:1;fill:#ffffff;fill-opacity:1;stroke:none;stroke-width:0.05291667;stroke-linecap:round;stroke-linejoin:miter;stroke-miterlimit:4;stroke-dasharray:none;stroke-dashoffset:0;stroke-opacity:1"
       id="rect831"
       width="2.6458333"
       height="2.6458333"
       x="1.3229166"
       y="1.3229166" />
    <rect
       style="opacity:1;fill:#d26161;fill-opacity:1;stroke:none;stroke-width:0.05291667;stroke-linecap:round;stroke-linejoin:miter;stroke-miterlimit:4;stroke-dasharray:none;stroke-dashoffset:0;stroke-opacity:1"
       id="rect819"
       width="1.0583333"
       height="2.6458333"
       x="0.26458332"
       y="1.3229166" />
    <use
       x="0"
       y="0"
       xlink:href="#rect819"
       id="use823"
       transform="translate(3.7041667)"
       width="100%"
       height="100%"
       style="fill:#d26161;fill-opacity:1" />
    <path
       inkscape:connector-curvature="0"
       style="fill:#d26161;stroke-width:0.00485965;fill-opacity:1"
       d="M 2.6457938,1.6178923 2.4800158,1.927089 C 2.4612048,1.960691 2.4275018,1.957575 2.3937978,1.938807 L 2.273779,1.876659 2.363231,2.3515785 c 0.01881,0.086765 -0.041541,0.086765 -0.071328,0.049249 L 2.082447,2.1663445 2.048443,2.2854207 c -0.00393,0.015638 -0.021162,0.032063 -0.047029,0.028152 l -0.2648595,-0.055687 0.069567,0.2529194 c 0.014895,0.056277 0.02651,0.079578 -0.015035,0.094421 l -0.094405,0.04437 0.4559384,0.3703463 c 0.018045,0.014001 0.027164,0.039203 0.020739,0.062019 l -0.039904,0.1309533 c 0.1569862,-0.018096 0.2976488,-0.04532 0.4547145,-0.062088 0.013864,-0.0015 0.037078,0.021401 0.036984,0.037471 l -0.0208,0.4797611 h 0.076328 L 2.6686682,3.1893267 c -9.57e-5,-0.01607 0.020961,-0.039981 0.034829,-0.038497 0.1570662,0.016767 0.2977283,0.043992 0.4547149,0.062088 L 3.1183085,3.0819635 c -0.00643,-0.022816 0.00269,-0.048016 0.020739,-0.062019 l 0.4559376,-0.3703464 -0.094404,-0.04437 c -0.041546,-0.014843 -0.029926,-0.038143 -0.015036,-0.094421 l 0.069567,-0.2529194 -0.2648599,0.055687 c -0.025864,0.00389 -0.043108,-0.012513 -0.047029,-0.028152 l -0.034004,-0.119075 -0.2094556,0.234483 c -0.029785,0.037514 -0.09014,0.037514 -0.071329,-0.049249 l 0.089452,-0.4749199 -0.1200184,0.062148 c -0.033705,0.018768 -0.067408,0.021884 -0.086219,-0.011718"
       id="path6" />
  </g>
  <g
     inkscape:label="Border"
     inkscape:groupmode="layer"
     id="layer1"
     transform="translate(0,-291.70831)"
     sodipodi:insensitive="true">
    <rect
       style="opacity:1;fill:none;fill-opacity:0.05574915;stroke:#808080;stroke-width:0.05291667;stroke-linecap:round;stroke-linejoin:miter;stroke-miterlimit:4;stroke-dasharray:none;stroke-dashoffset:0;stroke-opacity:1"
       id="rect828"
       width="4.7624998"
       height="2.6458333"
       x="0.26458332"
       y="293.03122"
       ry="0" />
  </g>
</svg>
