<?xml version="1.0" encoding="UTF-8" standalone="no"?>
<svg
   xmlns:dc="http://purl.org/dc/elements/1.1/"
   xmlns:cc="http://creativecommons.org/ns#"
   xmlns:rdf="http://www.w3.org/1999/02/22-rdf-syntax-ns#"
   xmlns:svg="http://www.w3.org/2000/svg"
   xmlns="http://www.w3.org/2000/svg"
   xmlns:sodipodi="http://sodipodi.sourceforge.net/DTD/sodipodi-0.dtd"
   xmlns:inkscape="http://www.inkscape.org/namespaces/inkscape"
   width="256pt"
   height="256pt"
   viewBox="0 0 256 256"
   version="1.1"
   id="svg2"
   inkscape:version="0.92.4 (5da689c313, 2019-01-14)"
   sodipodi:docname="skype.svg"
   inkscape:export-filename="D:\Workspace\LaTeX\CV\images\skype.png"
   inkscape:export-xdpi="144"
   inkscape:export-ydpi="144">
  <metadata
     id="metadata16">
    <rdf:RDF>
      <cc:Work
         rdf:about="">
        <dc:format>image/svg+xml</dc:format>
        <dc:type
           rdf:resource="http://purl.org/dc/dcmitype/StillImage" />
      </cc:Work>
    </rdf:RDF>
  </metadata>
  <defs
     id="defs14" />
  <sodipodi:namedview
     pagecolor="#ffffff"
     bordercolor="#666666"
     borderopacity="1"
     objecttolerance="10"
     gridtolerance="10"
     guidetolerance="10"
     inkscape:pageopacity="0"
     inkscape:pageshadow="2"
     inkscape:window-width="1920"
     inkscape:window-height="1001"
     id="namedview12"
     showgrid="false"
     inkscape:zoom="2.085965"
     inkscape:cx="261.51931"
     inkscape:cy="159.86311"
     inkscape:window-x="-9"
     inkscape:window-y="-9"
     inkscape:window-maximized="1"
     inkscape:current-layer="svg2" />
  <path
     fill="#fffffe"
     d=" M 0.00 0.00 L 256.00 0.00 L 256.00 256.00 L 0.00 256.00 L 0.00 0.00 Z"
     id="path4"
     style="fill:none" />
  <path
     fill="#00aff0"
     d=" M 38.00 21.99 C 58.33 7.32 87.08 6.06 108.73 18.61 C 133.14 14.38 158.95 18.40 180.73 30.27 C 205.04 43.33 224.13 65.76 233.02 91.90 C 239.13 109.59 240.55 128.82 237.37 147.25 C 245.19 161.00 247.90 177.55 244.73 193.06 C 241.38 210.17 230.83 225.68 216.24 235.21 C 196.04 248.79 168.29 249.56 147.25 237.38 C 123.82 241.41 99.11 237.92 77.91 227.10 C 53.27 214.72 33.62 192.82 24.01 166.97 C 17.05 148.50 15.30 128.18 18.61 108.74 C 10.62 94.75 8.03 77.84 11.44 62.10 C 14.82 46.02 24.55 31.41 38.00 21.99 Z"
     id="path6"
     style="fill:#000000;fill-opacity:0;stroke:none;stroke-opacity:1" />
  <path
     style="fill:#808080;fill-opacity:1;stroke-width:1.33333337"
     d="M 102.13086 35.833984 C 89.156574 35.703281 76.140235 39.386875 65.333984 46.640625 C 47.200651 58.427292 35.626172 79.639635 35.826172 101.29297 C 35.559505 115.49297 40.906797 129.06685 48.466797 140.85352 C 43.573463 163.33352 43.933828 187.09401 51.173828 209.02734 C 62.467162 244.70734 90.639947 274.46711 125.61328 287.78711 C 149.30662 297.10711 175.67979 298.30753 200.45312 292.88086 C 207.67979 297.08086 215.02656 301.33365 223.22656 303.32031 C 243.78656 308.93365 266.85284 303.57414 282.82617 289.49414 C 299.18617 275.52081 307.87932 253.14745 304.97266 231.80078 C 303.78599 220.46745 298.73385 210.06646 292.86719 200.45312 C 297.84052 177.61312 297.33378 153.42622 289.78711 131.21289 C 277.89378 94.77289 248.32042 64.732891 212.09375 52.212891 C 189.33375 44.066224 164.37352 43.319792 140.85352 48.453125 C 134.82685 44.999792 128.82682 41.332891 122.16016 39.212891 C 115.71141 37.017474 108.92691 35.902448 102.13086 35.833984 z M 167.3457 79.832031 C 183.5507 79.873281 199.75734 83.646719 214.02734 91.386719 C 222.34734 96.000052 230.40091 102.23922 234.26758 111.19922 C 236.78758 117.09255 237.0674 124.78737 232.41406 129.7207 C 227.37406 134.8807 219.14672 136.4663 212.38672 134.29297 C 204.56005 131.01297 200.66734 122.81359 194.02734 117.93359 C 185.68068 111.05359 174.43992 109.20005 163.91992 109.38672 C 156.22659 109.72005 147.98638 111.46581 142.37305 117.11914 C 137.18638 122.65247 135.26698 132.13271 140.32031 138.35938 C 145.09365 143.86604 152.46656 145.92078 159.22656 147.80078 C 172.1199 151.02745 185.16075 153.62635 198.10742 156.67969 C 211.57409 159.75969 225.17307 165.65362 234.06641 176.62695 C 249.39974 196.49362 245.94753 228.00091 226.88086 244.26758 C 211.62753 257.77425 190.4143 261.50695 170.6543 261.62695 C 149.56096 261.32029 127.01412 257.00089 110.80078 242.57422 C 102.66745 235.24089 95.825963 224.17352 98.279297 212.85352 C 100.9593 201.60018 116.41383 197.33391 125.17383 204.25391 C 131.86716 209.62724 135.49393 217.80073 141.94727 223.41406 C 149.66727 230.49406 160.42737 233.30607 170.7207 233.05273 C 180.81404 233.3194 191.53312 230.22688 198.45312 222.54688 C 203.15979 217.36021 205.65294 209.46617 202.59961 202.82617 C 200.09294 196.58617 193.65414 193.18586 187.49414 191.50586 C 176.13414 188.53253 164.69398 185.82617 153.33398 182.82617 C 140.85398 179.77284 127.87982 176.98688 117.14648 169.54688 C 108.77315 163.98687 102.42672 155.3074 100.38672 145.41406 C 96.960052 129.89406 99.413359 111.98615 110.69336 100.13281 C 121.01336 88.652812 136.31956 83.320677 151.21289 81.027344 C 156.54289 80.220677 161.94404 79.818281 167.3457 79.832031 z "
     transform="scale(0.74999998)"
     id="path8" />
</svg>
